<svg xmlns="http://www.w3.org/2000/svg" viewBox="0 0 32 32" width="32" height="32">
  <defs>
    <linearGradient id="emerald" x1="0%" y1="0%" x2="100%" y2="100%">
      <stop offset="0%" style="stop-color:#10b981;stop-opacity:1" />
      <stop offset="100%" style="stop-color:#059669;stop-opacity:1" />
    </linearGradient>
  </defs>
  
  <!-- Circular ring -->
  <circle cx="16" cy="16" r="14" fill="none" stroke="url(#emerald)" stroke-width="2"/>
  
  <!-- Apple at top -->
  <circle cx="16" cy="8" r="2" fill="url(#emerald)"/>
  <path d="M16 6 L15 4 M16 6 L17 4" stroke="url(#emerald)" stroke-width="0.8" fill="none"/>
  
  <!-- Bridge (arched) -->
  <path d="M8 16 Q16 12 24 16" stroke="url(#emerald)" stroke-width="2" fill="none"/>
  <path d="M8 16 Q16 13 24 16" stroke="url(#emerald)" stroke-width="1" fill="none"/>
  
  <!-- Spoon (left side) -->
  <path d="M6 10 L6 18 M6 10 Q4 8 6 6" stroke="url(#emerald)" stroke-width="1.5" fill="none"/>
  <circle cx="6" cy="18" r="1.5" fill="url(#emerald)"/>
  
  <!-- Fork (right side) -->
  <path d="M26 10 L26 18 M26 10 L24 8 M26 10 L28 8" stroke="url(#emerald)" stroke-width="1.5" fill="none"/>
  <path d="M25 18 L27 18" stroke="url(#emerald)" stroke-width="1.5"/>
  
  <!-- Three people figures at bottom -->
  <!-- Left person -->
  <circle cx="10" cy="22" r="1.2" fill="url(#emerald)"/>
  <path d="M10 23.2 L10 26 M9 25 L11 25" stroke="url(#emerald)" stroke-width="1" fill="none"/>
  <path d="M9 25 L8 27 M11 25 L12 27" stroke="url(#emerald)" stroke-width="1" fill="none"/>
  
  <!-- Center person with globe -->
  <circle cx="16" cy="22" r="1.2" fill="url(#emerald)"/>
  <path d="M16 23.2 L16 26 M15 25 L17 25" stroke="url(#emerald)" stroke-width="1" fill="none"/>
  <circle cx="16" cy="26" r="1" fill="url(#emerald)"/>
  
  <!-- Right person -->
  <circle cx="22" cy="22" r="1.2" fill="url(#emerald)"/>
  <path d="M22 23.2 L22 26 M21 25 L23 25" stroke="url(#emerald)" stroke-width="1" fill="none"/>
  <path d="M21 25 L20 27 M23 25 L24 27" stroke="url(#emerald)" stroke-width="1" fill="none"/>
  
  <!-- Wavy lines at bottom -->
  <path d="M8 28 Q12 26 16 28 Q20 30 24 28" stroke="url(#emerald)" stroke-width="1" fill="none"/>
</svg>
